<?xml version="1.0" standalone="no"?>
<!DOCTYPE svg PUBLIC "-//W3C//DTD SVG 1.1//EN" "http://www.w3.org/Graphics/SVG/1.1/DTD/svg11.dtd">
<svg xmlns="http://www.w3.org/2000/svg" version="1.1" viewBox="0.00 0.00 502.00 497.00" width="502" height="497">
<g stroke-width="2.00" fill="none" stroke-linecap="butt">
<path stroke="#395a58" vector-effect="non-scaling-stroke" d="   M 219.17 12.69   Q 216.46 13.42 213.90 14.06   Q 211.55 14.64 208.53 14.79   Q 200.96 15.16 194.43 17.03   Q 192.79 17.50 191.26 17.67   Q 189.75 17.84 188.25 18.27   Q 182.49 19.92 176.64 21.44   C 175.66 21.70 174.89 22.45 173.86 22.71   Q 169.90 23.70 166.48 25.34   C 165.55 25.79 164.37 25.86 163.45 26.37   Q 161.06 27.72 158.39 28.75   Q 156.81 29.35 155.19 30.25   Q 154.25 30.77 153.25 31.22   Q 147.97 33.64 138.47 39.99   Q 114.25 56.16 96.26 76.52   C 93.40 79.75 90.26 82.83 87.66 86.29   Q 86.33 88.06 84.69 90.12   Q 75.23 101.98 65.58 117.84   Q 63.69 120.93 61.70 124.75   Q 58.80 130.30 55.13 135.17   Q 54.82 135.58 54.88 136.09   Q 54.94 136.57 54.66 136.96   Q 53.12 139.09 52.32 141.54   Q 51.49 144.09 50.44 146.25   Q 48.92 149.37 48.00 152.55   Q 47.66 153.73 46.91 154.74   Q 46.15 155.78 46.34 157.19   Q 46.41 157.70 46.18 158.17   Q 43.26 163.93 41.88 170.25   Q 41.70 171.09 41.13 171.83   Q 40.81 172.24 40.86 172.77   Q 41.08 175.14 40.22 177.15   Q 39.30 179.30 38.92 181.27   Q 38.07 185.73 36.86 190.22   Q 36.04 193.27 35.25 196.53   Q 32.66 207.29 32.37 216.71   Q 32.34 217.40 31.87 217.92   A 1.65 1.59 72.2 0 0 31.45 218.78   Q 30.61 224.02 30.32 229.25   Q 29.91 236.94 29.51 244.94   C 29.37 247.60 29.69 250.30 29.69 253.01   Q 29.69 255.92 30.08 258.98   Q 31.11 267.09 31.38 275.26"/>
<path stroke="#8aa050" vector-effect="non-scaling-stroke" d="   M 31.38 275.26   Q 28.91 258.04 28.94 240.50   Q 28.95 237.41 29.58 233.02   Q 30.07 229.59 29.93 225.49   Q 29.62 216.84 30.69 210.50   Q 31.98 202.84 33.15 195.26   Q 33.51 192.90 34.30 191.65   Q 34.56 191.25 34.62 190.79   Q 35.02 187.55 36.03 184.55   Q 36.36 183.57 36.54 182.57   Q 36.74 181.43 37.12 180.40   Q 38.72 176.09 39.71 171.34   Q 40.10 169.47 40.73 167.74   Q 41.36 166.00 42.06 164.44   Q 42.13 164.28 42.03 164.12   Q 42.00 164.06 41.92 164.06   Q 41.72 164.06 41.60 164.23   Q 40.92 165.15 39.80 165.38   Q 39.24 165.50 39.05 165.97   L 32.03 183.11   Q 31.84 183.56 31.46 183.86   Q 31.13 184.11 30.94 184.46   Q 30.68 184.91 30.65 184.39   Q 30.65 184.34 30.66 184.28   Q 30.80 183.80 30.22 183.92   Q 29.73 184.03 29.37 184.13"/>
<path stroke="#8e9b26" vector-effect="non-scaling-stroke" d="   M 52.89 347.88   Q 57.24 355.98 61.51 364.73   C 62.28 366.28 63.45 367.55 64.19 369.20   Q 64.95 370.93 66.06 372.65   Q 69.79 378.49 73.53 384.48   Q 77.19 390.36 80.12 393.96   Q 83.07 397.59 85.43 401.46   Q 86.83 403.75 88.80 405.73   Q 90.72 407.67 92.67 409.73"/>
<path stroke="#2d647c" vector-effect="non-scaling-stroke" d="   M 316.77 29.35   Q 320.25 30.52 321.86 32.44   Q 322.28 32.94 321.66 33.14   Q 319.53 33.84 317.79 33.21   Q 313.59 31.68 309.92 30.83   Q 308.51 30.50 305.72 29.48   Q 303.47 28.65 301.35 28.61"/>
<path stroke="#3d552e" vector-effect="non-scaling-stroke" d="   M 129.07 67.99   Q 119.73 77.44 110.47 87.00   Q 106.13 91.48 89.61 113.61   Q 88.15 115.56 87.38 117.19   Q 86.50 119.06 85.32 120.84   Q 83.32 123.85 81.58 126.92   Q 80.70 128.49 78.25 132.04   Q 76.47 134.63 75.36 137.48"/>
<path stroke="#2d647c" vector-effect="non-scaling-stroke" d="   M 46.95 220.14   Q 45.31 227.77 46.62 235.75   Q 47.02 238.18 46.31 245.77   Q 45.76 251.58 45.91 255.86   Q 46.05 259.97 46.27 264.25   Q 46.41 267.10 46.93 269.72   Q 47.48 272.50 47.42 275.21   Q 47.41 275.70 47.71 276.08   Q 47.99 276.45 47.92 276.93   Q 47.85 277.48 47.90 278.04   Q 48.89 287.65 50.41 297.22   Q 50.42 297.25 51.41 301.71   Q 51.82 303.53 52.18 306.24   Q 52.73 310.44 55.59 315.90"/>
<path stroke="#3d552e" vector-effect="non-scaling-stroke" d="   M 74.86 368.04   Q 78.01 375.37 84.07 384.91   Q 84.44 385.49 84.75 385.67   Q 85.12 385.87 85.12 386.29   L 85.12 386.96   Q 85.12 387.40 85.38 387.75   L 110.14 421.97   A 0.50 0.49 62.0 0 0 110.71 422.15   Q 111.18 421.99 111.05 421.49"/>
<path stroke="#3d552e" vector-effect="non-scaling-stroke" d="   M 96.89 413.17   Q 92.14 406.85 87.24 400.80   C 86.12 399.42 85.46 397.95 84.32 396.64   Q 83.08 395.23 81.97 393.66   Q 71.51 378.84 62.59 363.92   Q 60.01 359.60 57.41 354.36   Q 55.01 349.53 52.57 344.62"/>
<path stroke="#6a7b31" vector-effect="non-scaling-stroke" d="   M 32.98 290.51   Q 32.93 282.56 31.38 275.26"/>
<path stroke="#885586" vector-effect="non-scaling-stroke" d="   M 206.76 423.76   Q 196.48 421.90 186.68 418.57   Q 186.28 418.43 185.98 418.73   L 185.45 419.25"/>
<path stroke="#885586" vector-effect="non-scaling-stroke" d="   M 152.32 388.37   Q 156.93 392.28 165.01 396.22   Q 186.79 406.84 208.00 410.88   Q 211.17 411.49 214.32 411.63   Q 217.32 411.77 220.58 412.11   Q 224.68 412.52 228.09 411.46"/>
<path stroke="#2d647c" vector-effect="non-scaling-stroke" d="   M 316.76 475.56   Q 317.03 475.32 317.74 475.03   Q 318.22 474.83 318.81 474.87   Q 325.90 475.27 332.55 474.03   C 333.83 473.79 334.99 474.09 336.21 473.61   Q 337.48 473.12 338.81 472.89   Q 341.25 472.46 343.79 472.11   Q 346.24 471.77 348.64 470.97   Q 351.45 470.03 354.14 469.49   A 1.39 1.39 0.0 0 0 354.89 469.09   Q 355.18 468.79 355.56 468.67   Q 360.82 466.97 365.86 465.15   Q 365.99 465.10 366.13 465.12   Q 366.29 465.15 366.46 465.15   Q 366.78 465.15 367.05 464.99   Q 369.62 463.54 372.54 462.69   Q 373.02 462.55 373.40 462.21   Q 374.78 460.99 376.50 460.67   Q 377.03 460.58 377.45 460.26   Q 380.99 457.58 384.67 456.15   C 385.53 455.81 385.74 454.97 386.48 454.46   Q 389.85 452.16 393.11 449.34   C 394.49 448.15 396.03 447.86 397.19 446.37   Q 397.47 446.00 397.90 445.83   Q 398.11 445.75 398.32 445.67   Q 398.74 445.50 399.06 445.18   Q 402.42 441.89 406.01 439.01   Q 406.17 438.88 406.37 438.89   Q 406.71 438.90 406.92 438.62   Q 408.50 436.52 410.57 435.20   Q 411.11 434.85 411.38 434.26   C 411.92 433.06 412.70 432.01 413.74 431.23   Q 414.70 430.51 415.51 429.43   Q 416.58 428.02 418.05 426.85   Q 419.45 425.75 420.48 424.41   Q 425.96 417.27 431.30 408.81   Q 432.38 407.09 433.76 405.52   Q 435.20 403.87 436.09 401.85   Q 436.77 400.32 437.85 398.89   Q 438.82 397.61 439.55 396.20   Q 440.82 393.73 442.42 391.32   Q 443.80 389.25 444.64 387.15   Q 445.43 385.16 446.63 383.47   Q 448.03 381.50 449.15 379.41   Q 455.51 367.52 460.56 357.82   Q 460.95 357.07 460.88 356.22   Q 460.84 355.69 461.18 355.29   Q 464.74 351.12 465.90 345.87   Q 466.28 344.18 467.12 342.59   Q 468.23 340.47 469.02 338.18   Q 470.73 333.18 472.71 328.56   Q 473.49 326.75 473.92 324.70   Q 474.34 322.66 475.20 320.82   Q 477.10 316.75 477.69 312.69   Q 478.18 309.28 479.00 305.93   Q 480.67 299.11 480.81 291.91   Q 480.83 291.15 481.07 290.45   Q 481.40 289.51 481.45 288.99   Q 483.14 270.26 481.92 251.48   Q 481.91 251.35 481.78 251.37   Q 481.73 251.37 481.69 251.35   Q 481.46 251.25 481.43 251.00   Q 481.04 247.80 480.89 244.10   Q 480.86 243.34 481.24 244.00   Q 481.61 244.66 481.40 245.39   Q 481.36 245.52 481.35 245.39   Q 481.03 238.02 480.03 231.57   Q 479.84 230.35 479.08 228.04   Q 478.59 226.54 478.36 224.90   Q 478.16 223.51 477.72 222.15   C 477.03 220.04 477.65 218.09 476.68 215.90   Q 475.63 213.53 475.28 210.64   Q 474.95 207.92 473.83 205.68   Q 472.89 203.79 472.63 201.58   Q 472.36 199.36 471.47 197.09   Q 470.53 194.72 469.43 192.36   Q 468.26 189.83 467.59 187.49   Q 466.65 184.23 465.10 181.21   Q 464.81 180.64 464.46 180.11   Q 464.10 179.58 464.11 178.96   Q 464.12 178.54 463.95 178.16   L 458.80 166.66"/>
<path stroke="#7eaa74" vector-effect="non-scaling-stroke" d="   M 261.33 41.49   L 252.54 41.93   Q 252.04 41.95 251.65 42.26   Q 251.26 42.55 250.76 42.64   Q 244.08 43.75 238.07 43.84   C 230.05 43.96 225.37 44.14 218.99 44.43   Q 218.48 44.46 218.13 44.09   L 217.44 43.37"/>
<path stroke="#6a7b31" vector-effect="non-scaling-stroke" d="   M 422.34 120.71   Q 422.09 120.83 421.84 120.95"/>
<path stroke="#8e9b26" vector-effect="non-scaling-stroke" d="   M 421.84 120.95   Q 422.84 122.38 423.84 123.69   Q 424.89 125.07 425.58 126.60   Q 426.55 128.74 427.70 130.74   Q 430.65 135.90 433.49 141.57   Q 434.84 144.25 435.97 146.81   Q 438.31 152.10 440.88 157.48   Q 442.19 160.23 443.51 163.90   Q 444.69 167.20 446.04 170.31   Q 447.74 174.21 448.79 177.37   Q 450.02 181.06 451.26 184.54   Q 452.05 186.77 452.56 188.99   Q 453.09 191.28 453.95 193.57   Q 454.41 194.78 454.56 196.02   Q 454.72 197.31 455.16 198.37   Q 455.82 199.98 456.22 201.75   Q 457.19 206.06 458.39 210.14   C 459.04 212.35 459.10 214.48 459.33 216.76   Q 459.57 219.30 460.25 221.67   Q 461.53 226.08 461.93 230.70   Q 462.31 234.99 462.97 238.86   Q 464.43 247.47 464.14 260.57   Q 464.01 266.12 463.30 271.05   Q 462.16 279.05 461.94 281.45   Q 461.51 286.19 460.35 291.25   Q 460.29 291.49 460.06 291.58   Q 459.83 291.67 459.85 291.92   C 459.98 293.14 459.13 294.04 459.04 295.27   Q 458.84 297.99 458.58 300.79   Q 458.56 300.96 458.40 301.02   Q 458.14 301.12 458.14 301.41   Q 458.16 303.30 457.16 305.42   Q 456.35 307.13 456.08 309.16   Q 455.66 312.22 454.27 315.33   Q 453.24 317.65 452.57 320.45   Q 452.12 322.37 450.41 326.62   Q 449.25 329.51 448.05 332.70   Q 446.45 336.96 444.51 341.06   Q 443.82 342.54 443.12 344.31   Q 442.62 345.60 441.67 347.52   Q 430.47 370.11 424.30 380.99"/>
<path stroke="#6a7b31" vector-effect="non-scaling-stroke" d="   M 424.30 380.99   L 422.10 385.70   Q 421.88 386.16 421.40 386.33   L 420.51 386.62"/>
<path stroke="#8e9b26" vector-effect="non-scaling-stroke" d="   M 110.36 420.29   Q 109.49 419.26 109.11 417.88   Q 108.97 417.42 108.62 417.08   Q 106.37 414.92 104.75 412.19   Q 103.07 409.37 101.33 407.18   Q 97.38 402.20 93.61 396.38   Q 90.18 391.10 86.11 385.71"/>
<path stroke="#c56c3b" vector-effect="non-scaling-stroke" d="   M 191.40 424.60   Q 191.87 423.22 193.27 425.42   Q 193.86 426.35 194.55 426.77   Q 198.60 429.21 203.90 427.86"/>
<path stroke="#7eaa74" vector-effect="non-scaling-stroke" d="   M 231.57 429.76   Q 248.92 430.37 266.05 429.64   C 267.12 429.59 267.64 428.99 268.76 429.08   C 270.24 429.20 271.61 428.97 273.06 429.02   Q 274.20 429.06 275.39 428.95   Q 282.95 428.22 289.51 427.48   Q 290.49 427.37 291.39 427.35   Q 295.12 427.25 298.41 426.77   Q 306.29 425.60 320.14 422.53   C 324.87 421.48 329.60 419.66 333.38 417.14   Q 337.72 414.25 341.07 413.23"/>
<path stroke="#8e9b26" vector-effect="non-scaling-stroke" d="   M 83.89 125.72   Q 95.27 107.69 102.03 99.52   Q 104.79 96.19 106.57 93.88   Q 109.52 90.02 111.13 88.25   Q 119.51 79.03 128.08 70.17"/>
<path stroke="#3d552e" vector-effect="non-scaling-stroke" d="   M 424.30 380.99   Q 431.62 371.95 436.06 361.54   C 436.42 360.68 437.33 359.81 437.63 359.13   Q 441.93 349.43 446.81 339.34   Q 448.20 336.48 449.10 333.78   Q 450.06 330.95 451.28 328.16   Q 453.32 323.49 454.44 319.76   Q 455.43 316.46 456.68 313.24   Q 457.87 310.19 458.80 306.78   Q 460.37 301.06 461.83 295.27   Q 462.69 291.91 462.99 288.47   Q 463.08 287.48 463.42 286.51   Q 463.74 285.56 464.02 284.59   Q 464.39 283.27 464.52 281.78   Q 465.04 275.64 465.43 269.53   Q 465.46 269.03 465.59 268.56   Q 465.84 267.67 465.86 266.77   Q 465.97 260.94 466.21 254.98   Q 466.22 254.90 466.31 254.91   Q 466.47 254.95 466.55 254.85   Q 466.65 254.73 466.65 254.59   Q 466.45 248.30 465.54 242.08   C 465.27 240.25 465.54 238.48 465.26 236.70   Q 464.97 234.78 464.91 232.74   Q 464.80 228.66 463.29 224.72   C 462.37 222.32 462.14 220.13 461.82 217.64   Q 461.51 215.24 460.60 212.09   Q 459.78 209.27 459.19 206.23   Q 458.68 203.63 457.57 201.24   Q 457.00 200.02 456.70 198.70   C 456.36 197.21 455.36 195.95 455.35 194.43   Q 455.35 193.21 454.99 192.06   Q 453.08 185.97 451.19 179.43   Q 450.62 177.48 449.77 175.67   Q 448.91 173.82 448.67 171.86   C 448.49 170.41 447.26 169.46 447.01 168.03   Q 446.56 165.49 445.18 163.31   C 444.38 162.06 444.11 160.81 443.64 159.41   Q 443.13 157.87 442.38 156.45   Q 440.20 152.31 438.25 147.93   C 437.40 146.00 436.20 144.37 435.40 142.41   C 433.44 137.60 429.92 132.37 428.12 129.00   Q 425.58 124.27 421.84 120.95"/>
</g>
<path fill="#587e77" d="   M 219.17 12.69   Q 216.46 13.42 213.90 14.06   Q 211.55 14.64 208.53 14.79   Q 200.96 15.16 194.43 17.03   Q 192.79 17.50 191.26 17.67   Q 189.75 17.84 188.25 18.27   Q 182.49 19.92 176.64 21.44   C 175.66 21.70 174.89 22.45 173.86 22.71   Q 169.90 23.70 166.48 25.34   C 165.55 25.79 164.37 25.86 163.45 26.37   Q 161.06 27.72 158.39 28.75   Q 156.81 29.35 155.19 30.25   Q 154.25 30.77 153.25 31.22   Q 147.97 33.64 138.47 39.99   Q 114.25 56.16 96.26 76.52   C 93.40 79.75 90.26 82.83 87.66 86.29   Q 86.33 88.06 84.69 90.12   Q 75.23 101.98 65.58 117.84   Q 63.69 120.93 61.70 124.75   Q 58.80 130.30 55.13 135.17   Q 54.82 135.58 54.88 136.09   Q 54.94 136.57 54.66 136.96   Q 53.12 139.09 52.32 141.54   Q 51.49 144.09 50.44 146.25   Q 48.92 149.37 48.00 152.55   Q 47.66 153.73 46.91 154.74   Q 46.15 155.78 46.34 157.19   Q 46.41 157.70 46.18 158.17   Q 43.26 163.93 41.88 170.25   Q 41.70 171.09 41.13 171.83   Q 40.81 172.24 40.86 172.77   Q 41.08 175.14 40.22 177.15   Q 39.30 179.30 38.92 181.27   Q 38.07 185.73 36.86 190.22   Q 36.04 193.27 35.25 196.53   Q 32.66 207.29 32.37 216.71   Q 32.34 217.40 31.87 217.92   A 1.65 1.59 72.2 0 0 31.45 218.78   Q 30.61 224.02 30.32 229.25   Q 29.91 236.94 29.51 244.94   C 29.37 247.60 29.69 250.30 29.69 253.01   Q 29.69 255.92 30.08 258.98   Q 31.11 267.09 31.38 275.26   Q 28.91 258.04 28.94 240.50   Q 28.95 237.41 29.58 233.02   Q 30.07 229.59 29.93 225.49   Q 29.62 216.84 30.69 210.50   Q 31.98 202.84 33.15 195.26   Q 33.51 192.90 34.30 191.65   Q 34.56 191.25 34.62 190.79   Q 35.02 187.55 36.03 184.55   Q 36.36 183.57 36.54 182.57   Q 36.74 181.43 37.12 180.40   Q 38.72 176.09 39.71 171.34   Q 40.10 169.47 40.73 167.74   Q 41.36 166.00 42.06 164.44   Q 42.13 164.28 42.03 164.12   Q 42.00 164.06 41.92 164.06   Q 41.72 164.06 41.60 164.23   Q 40.92 165.15 39.80 165.38   Q 39.24 165.50 39.05 165.97   L 32.03 183.11   Q 31.84 183.56 31.46 183.86   Q 31.13 184.11 30.94 184.46   Q 30.68 184.91 30.65 184.39   Q 30.65 184.34 30.66 184.28   Q 30.80 183.80 30.22 183.92   Q 29.73 184.03 29.37 184.13   Q 30.67 176.81 33.46 169.98   C 37.94 159.06 43.47 148.21 50.63 138.79   Q 53.18 135.44 55.72 132.03   Q 58.11 128.84 60.38 124.88   Q 75.14 99.18 92.29 79.44   Q 108.91 60.31 130.90 44.34   Q 146.53 32.99 163.34 25.42   Q 167.30 23.63 171.31 22.24   C 176.15 20.56 181.15 18.51 186.28 17.67   C 189.47 17.14 192.41 15.87 195.57 15.38   Q 200.44 14.62 205.30 13.69   C 209.91 12.81 214.45 12.71 219.17 12.69   Z"/>
<path fill="#193539" d="   M 219.17 12.69   Q 233.84 12.38 248.94 12.83   Q 253.43 12.96 257.34 13.80   C 263.48 15.12 269.69 15.35 275.73 16.86   C 279.96 17.92 284.30 17.96 288.62 19.15   Q 295.44 21.03 302.24 23.04   Q 304.31 23.65 306.18 24.59   C 307.96 25.47 309.78 25.92 311.55 26.87   Q 314.02 28.19 316.77 29.35   Q 320.25 30.52 321.86 32.44   Q 322.28 32.94 321.66 33.14   Q 319.53 33.84 317.79 33.21   Q 313.59 31.68 309.92 30.83   Q 308.51 30.50 305.72 29.48   Q 303.47 28.65 301.35 28.61   Q 300.44 28.44 299.65 28.16   Q 298.73 27.85 297.85 27.73   Q 293.22 27.13 288.47 26.17   Q 283.80 25.23 278.31 24.78   Q 268.81 24.00 260.37 23.36   Q 247.12 22.35 230.33 22.84   C 224.18 23.02 218.25 24.26 212.20 24.98   C 208.75 25.39 205.46 26.68 202.06 27.29   Q 198.35 27.96 194.52 29.18   Q 180.83 33.53 168.15 40.20   Q 162.51 43.16 155.00 48.11   Q 146.00 54.04 142.45 56.95   Q 135.76 62.42 129.07 67.99   Q 119.73 77.44 110.47 87.00   Q 106.13 91.48 89.61 113.61   Q 88.15 115.56 87.38 117.19   Q 86.50 119.06 85.32 120.84   Q 83.32 123.85 81.58 126.92   Q 80.70 128.49 78.25 132.04   Q 76.47 134.63 75.36 137.48   Q 72.59 142.18 68.29 151.07   Q 59.31 169.69 54.36 186.00   C 53.46 188.99 53.14 192.06 52.21 194.98   C 50.83 199.35 49.96 203.86 48.93 208.32   Q 48.46 210.35 48.07 214.23   Q 47.76 217.32 46.95 220.14   Q 45.31 227.77 46.62 235.75   Q 47.02 238.18 46.31 245.77   Q 45.76 251.58 45.91 255.86   Q 46.05 259.97 46.27 264.25   Q 46.41 267.10 46.93 269.72   Q 47.48 272.50 47.42 275.21   Q 47.41 275.70 47.71 276.08   Q 47.99 276.45 47.92 276.93   Q 47.85 277.48 47.90 278.04   Q 48.89 287.65 50.41 297.22   Q 50.42 297.25 51.41 301.71   Q 51.82 303.53 52.18 306.24   Q 52.73 310.44 55.59 315.90   Q 55.71 321.57 56.10 323.56   Q 56.50 325.61 57.74 328.59   Q 58.39 330.14 59.05 331.86   Q 61.50 338.20 64.18 344.74   Q 66.61 350.66 69.35 356.44   Q 72.11 362.28 74.86 368.04   Q 78.01 375.37 84.07 384.91   Q 84.44 385.49 84.75 385.67   Q 85.12 385.87 85.12 386.29   L 85.12 386.96   Q 85.12 387.40 85.38 387.75   L 110.14 421.97   A 0.50 0.49 62.0 0 0 110.71 422.15   Q 111.18 421.99 111.05 421.49   Q 112.40 423.67 115.64 427.62   Q 122.84 436.40 130.58 444.85   Q 133.25 447.77 137.21 451.35   C 138.54 452.54 138.99 453.93 140.29 454.99   Q 140.50 455.16 140.29 455.32   L 139.95 455.59   Q 139.87 455.65 139.80 455.60   Q 138.00 454.56 136.30 453.54   Q 131.03 450.36 126.65 445.86   Q 115.65 434.56 108.16 426.59   Q 102.52 420.60 96.89 413.17   Q 92.14 406.85 87.24 400.80   C 86.12 399.42 85.46 397.95 84.32 396.64   Q 83.08 395.23 81.97 393.66   Q 71.51 378.84 62.59 363.92   Q 60.01 359.60 57.41 354.36   Q 55.01 349.53 52.57 344.62   Q 48.56 335.22 44.63 325.57   C 43.81 323.56 43.81 321.57 42.85 319.54   Q 41.71 317.12 41.21 314.64   C 40.59 311.57 39.09 309.03 38.58 305.87   C 38.14 303.15 36.56 301.09 36.33 298.27   C 36.03 294.62 35.55 291.08 33.96 287.79   Q 33.55 286.96 33.41 287.87   L 32.98 290.51   Q 32.93 282.56 31.38 275.26   Q 31.11 267.09 30.08 258.98   Q 29.69 255.92 29.69 253.01   C 29.69 250.30 29.37 247.60 29.51 244.94   Q 29.91 236.94 30.32 229.25   Q 30.61 224.02 31.45 218.78   A 1.65 1.59 72.2 0 1 31.87 217.92   Q 32.34 217.40 32.37 216.71   Q 32.66 207.29 35.25 196.53   Q 36.04 193.27 36.86 190.22   Q 38.07 185.73 38.92 181.27   Q 39.30 179.30 40.22 177.15   Q 41.08 175.14 40.86 172.77   Q 40.81 172.24 41.13 171.83   Q 41.70 171.09 41.88 170.25   Q 43.26 163.93 46.18 158.17   Q 46.41 157.70 46.34 157.19   Q 46.15 155.78 46.91 154.74   Q 47.66 153.73 48.00 152.55   Q 48.92 149.37 50.44 146.25   Q 51.49 144.09 52.32 141.54   Q 53.12 139.09 54.66 136.96   Q 54.94 136.57 54.88 136.09   Q 54.82 135.58 55.13 135.17   Q 58.80 130.30 61.70 124.75   Q 63.69 120.93 65.58 117.84   Q 75.23 101.98 84.69 90.12   Q 86.33 88.06 87.66 86.29   C 90.26 82.83 93.40 79.75 96.26 76.52   Q 114.25 56.16 138.47 39.99   Q 147.97 33.64 153.25 31.22   Q 154.25 30.77 155.19 30.25   Q 156.81 29.35 158.39 28.75   Q 161.06 27.72 163.45 26.37   C 164.37 25.86 165.55 25.79 166.48 25.34   Q 169.90 23.70 173.86 22.71   C 174.89 22.45 175.66 21.70 176.64 21.44   Q 182.49 19.92 188.25 18.27   Q 189.75 17.84 191.26 17.67   Q 192.79 17.50 194.43 17.03   Q 200.96 15.16 208.53 14.79   Q 211.55 14.64 213.90 14.06   Q 216.46 13.42 219.17 12.69   Z"/>
<path fill="#4093bf" d="   M 316.77 29.35   Q 332.33 29.89 347.89 31.73   C 351.93 32.21 355.75 33.33 359.77 33.98   C 363.73 34.62 367.60 35.91 371.50 36.97   Q 392.01 42.51 410.05 55.49   Q 429.29 69.32 442.44 87.35   Q 453.07 101.93 461.11 118.07   Q 474.25 144.49 481.40 175.77   Q 482.20 179.26 482.65 182.87   C 483.03 185.94 484.22 188.76 484.64 191.75   Q 486.98 208.66 487.55 213.90   Q 492.79 262.11 485.58 309.78   C 484.14 319.26 481.55 329.53 479.28 339.02   Q 475.82 353.50 468.72 369.70   Q 449.38 413.85 410.32 442.35   Q 378.35 465.68 341.25 475.96   C 335.34 477.60 329.53 479.62 323.51 480.74   C 322.06 481.01 320.97 481.71 319.43 481.81   C 314.85 482.10 310.55 483.61 306.11 484.21   Q 300.31 485.00 294.22 485.81   Q 293.45 485.91 292.72 486.16   Q 291.89 486.45 291.09 486.65   Q 286.09 487.90 280.65 489.00   Q 278.98 489.34 277.41 488.64   Q 276.08 488.03 274.88 488.50   C 270.26 490.32 264.01 489.66 259.00 489.75   C 255.70 489.81 252.63 489.24 249.45 488.59   Q 247.40 488.17 245.48 488.35   Q 242.53 488.61 239.31 488.08   C 232.67 486.99 225.73 487.48 218.87 487.25   C 217.63 487.21 216.54 486.85 215.30 486.82   Q 209.38 486.71 202.82 486.70   C 200.31 486.69 198.16 485.98 195.77 485.33   Q 194.11 484.88 192.72 484.80   Q 188.86 484.58 186.33 484.05   Q 180.94 482.93 175.55 482.13   Q 172.17 481.62 168.87 480.74   C 165.96 479.96 162.95 479.84 160.04 479.05   Q 155.01 477.66 150.12 476.51   Q 142.66 474.75 135.46 471.27   C 128.57 467.95 121.78 464.82 115.17 460.79   C 110.94 458.21 106.81 455.72 102.78 452.81   Q 92.74 445.57 84.02 438.89   C 67.99 426.61 54.23 411.94 39.59 398.04   Q 39.12 397.59 39.20 396.96   A 0.92 0.91 17.9 0 1 40.54 396.28   Q 50.32 401.61 60.90 407.84   Q 63.48 409.35 65.84 411.04   C 67.93 412.55 69.79 414.06 72.21 415.09   Q 75.81 416.63 79.33 417.07   Q 82.94 417.53 86.55 419.22   C 90.47 421.06 92.85 423.85 95.95 426.92   Q 105.02 435.90 112.64 442.35   Q 120.80 449.25 130.87 455.77   C 132.68 456.95 134.56 457.60 136.32 458.78   C 137.79 459.75 139.44 459.56 140.90 460.31   Q 148.40 464.12 154.32 466.12   Q 162.59 468.91 171.54 471.32   Q 175.58 472.40 179.53 472.85   C 183.20 473.26 186.60 474.62 190.21 475.15   Q 197.76 476.23 205.23 477.52   C 210.11 478.36 215.00 478.46 219.97 479.30   Q 226.17 480.35 232.39 480.48   Q 242.95 480.70 252.86 481.82   C 255.38 482.10 257.56 481.26 260.02 481.44   Q 265.47 481.85 270.93 481.48   C 272.70 481.35 274.36 480.45 276.14 480.72   C 278.56 481.09 281.20 481.28 283.61 481.08   Q 299.12 479.79 314.11 477.09   Q 315.68 476.81 316.76 475.56   Q 317.03 475.32 317.74 475.03   Q 318.22 474.83 318.81 474.87   Q 325.90 475.27 332.55 474.03   C 333.83 473.79 334.99 474.09 336.21 473.61   Q 337.48 473.12 338.81 472.89   Q 341.25 472.46 343.79 472.11   Q 346.24 471.77 348.64 470.97   Q 351.45 470.03 354.14 469.49   A 1.39 1.39 0.0 0 0 354.89 469.09   Q 355.18 468.79 355.56 468.67   Q 360.82 466.97 365.86 465.15   Q 365.99 465.10 366.13 465.12   Q 366.29 465.15 366.46 465.15   Q 366.78 465.15 367.05 464.99   Q 369.62 463.54 372.54 462.69   Q 373.02 462.55 373.40 462.21   Q 374.78 460.99 376.50 460.67   Q 377.03 460.58 377.45 460.26   Q 380.99 457.58 384.67 456.15   C 385.53 455.81 385.74 454.97 386.48 454.46   Q 389.85 452.16 393.11 449.34   C 394.49 448.15 396.03 447.86 397.19 446.37   Q 397.47 446.00 397.90 445.83   Q 398.11 445.75 398.32 445.67   Q 398.74 445.50 399.06 445.18   Q 402.42 441.89 406.01 439.01   Q 406.17 438.88 406.37 438.89   Q 406.71 438.90 406.92 438.62   Q 408.50 436.52 410.57 435.20   Q 411.11 434.85 411.38 434.26   C 411.92 433.06 412.70 432.01 413.74 431.23   Q 414.70 430.51 415.51 429.43   Q 416.58 428.02 418.05 426.85   Q 419.45 425.75 420.48 424.41   Q 425.96 417.27 431.30 408.81   Q 432.38 407.09 433.76 405.52   Q 435.20 403.87 436.09 401.85   Q 436.77 400.32 437.85 398.89   Q 438.82 397.61 439.55 396.20   Q 440.82 393.73 442.42 391.32   Q 443.80 389.25 444.64 387.15   Q 445.43 385.16 446.63 383.47   Q 448.03 381.50 449.15 379.41   Q 455.51 367.52 460.56 357.82   Q 460.95 357.07 460.88 356.22   Q 460.84 355.69 461.18 355.29   Q 464.74 351.12 465.90 345.87   Q 466.28 344.18 467.12 342.59   Q 468.23 340.47 469.02 338.18   Q 470.73 333.18 472.71 328.56   Q 473.49 326.75 473.92 324.70   Q 474.34 322.66 475.20 320.82   Q 477.10 316.75 477.69 312.69   Q 478.18 309.28 479.00 305.93   Q 480.67 299.11 480.81 291.91   Q 480.83 291.15 481.07 290.45   Q 481.40 289.51 481.45 288.99   Q 483.14 270.26 481.92 251.48   Q 481.91 251.35 481.78 251.37   Q 481.73 251.37 481.69 251.35   Q 481.46 251.25 481.43 251.00   Q 481.04 247.80 480.89 244.10   Q 480.86 243.34 481.24 244.00   Q 481.61 244.66 481.40 245.39   Q 481.36 245.52 481.35 245.39   Q 481.03 238.02 480.03 231.57   Q 479.84 230.35 479.08 228.04   Q 478.59 226.54 478.36 224.90   Q 478.16 223.51 477.72 222.15   C 477.03 220.04 477.65 218.09 476.68 215.90   Q 475.63 213.53 475.28 210.64   Q 474.95 207.92 473.83 205.68   Q 472.89 203.79 472.63 201.58   Q 472.36 199.36 471.47 197.09   Q 470.53 194.72 469.43 192.36   Q 468.26 189.83 467.59 187.49   Q 466.65 184.23 465.10 181.21   Q 464.81 180.64 464.46 180.11   Q 464.10 179.58 464.11 178.96   Q 464.12 178.54 463.95 178.16   L 458.80 166.66   Q 459.34 164.02 458.28 161.34   Q 457.58 159.58 457.23 158.02   Q 456.81 156.20 455.95 154.69   C 455.22 153.39 455.39 152.04 454.89 150.74   Q 447.06 130.42 437.88 114.34   Q 428.63 98.14 415.57 82.66   Q 408.86 74.72 401.70 68.64   Q 388.82 57.72 374.51 51.04   C 371.51 49.65 368.23 48.86 365.27 47.35   C 363.15 46.27 361.01 46.29 358.95 45.42   Q 356.74 44.49 354.36 43.94   Q 340.82 40.81 330.60 39.23   Q 316.06 36.99 296.41 38.18   Q 282.24 39.04 267.73 40.66   C 265.57 40.91 263.46 41.43 261.33 41.49   L 252.54 41.93   Q 252.04 41.95 251.65 42.26   Q 251.26 42.55 250.76 42.64   Q 244.08 43.75 238.07 43.84   C 230.05 43.96 225.37 44.14 218.99 44.43   Q 218.48 44.46 218.13 44.09   L 217.44 43.37   Q 223.50 41.51 229.61 40.05   Q 233.23 39.18 236.91 38.80   C 242.48 38.22 247.54 36.84 253.24 36.18   C 257.32 35.72 261.39 34.44 265.44 34.19   Q 274.62 33.63 283.25 32.18   C 288.02 31.38 293.27 31.32 297.99 30.76   Q 300.11 30.50 301.35 28.61   Q 303.47 28.65 305.72 29.48   Q 308.51 30.50 309.92 30.83   Q 313.59 31.68 317.79 33.21   Q 319.53 33.84 321.66 33.14   Q 322.28 32.94 321.86 32.44   Q 320.25 30.52 316.77 29.35   Z"/>
<path fill="#bbc129" d="   M 261.33 41.49   Q 259.81 41.96 259.66 42.24   A 1.42 1.36 20.5 0 0 260.61 44.22   Q 269.86 46.46 278.25 47.52   C 279.93 47.73 281.56 48.50 283.25 48.75   C 293.60 50.24 303.48 53.09 313.49 56.06   Q 319.22 57.75 324.53 59.76   Q 340.26 65.70 355.22 73.52   Q 360.03 76.04 364.84 78.71   Q 369.79 81.46 374.20 84.32   Q 397.38 99.38 417.44 117.82   Q 418.87 119.14 422.34 120.71   Q 422.09 120.83 421.84 120.95   Q 422.84 122.38 423.84 123.69   Q 424.89 125.07 425.58 126.60   Q 426.55 128.74 427.70 130.74   Q 430.65 135.90 433.49 141.57   Q 434.84 144.25 435.97 146.81   Q 438.31 152.10 440.88 157.48   Q 442.19 160.23 443.51 163.90   Q 444.69 167.20 446.04 170.31   Q 447.74 174.21 448.79 177.37   Q 450.02 181.06 451.26 184.54   Q 452.05 186.77 452.56 188.99   Q 453.09 191.28 453.95 193.57   Q 454.41 194.78 454.56 196.02   Q 454.72 197.31 455.16 198.37   Q 455.82 199.98 456.22 201.75   Q 457.19 206.06 458.39 210.14   C 459.04 212.35 459.10 214.48 459.33 216.76   Q 459.57 219.30 460.25 221.67   Q 461.53 226.08 461.93 230.70   Q 462.31 234.99 462.97 238.86   Q 464.43 247.47 464.14 260.57   Q 464.01 266.12 463.30 271.05   Q 462.16 279.05 461.94 281.45   Q 461.51 286.19 460.35 291.25   Q 460.29 291.49 460.06 291.58   Q 459.83 291.67 459.85 291.92   C 459.98 293.14 459.13 294.04 459.04 295.27   Q 458.84 297.99 458.58 300.79   Q 458.56 300.96 458.40 301.02   Q 458.14 301.12 458.14 301.41   Q 458.16 303.30 457.16 305.42   Q 456.35 307.13 456.08 309.16   Q 455.66 312.22 454.27 315.33   Q 453.24 317.65 452.57 320.45   Q 452.12 322.37 450.41 326.62   Q 449.25 329.51 448.05 332.70   Q 446.45 336.96 444.51 341.06   Q 443.82 342.54 443.12 344.31   Q 442.62 345.60 441.67 347.52   Q 430.47 370.11 424.30 380.99   L 422.10 385.70   Q 421.88 386.16 421.40 386.33   L 420.51 386.62   C 419.52 386.77 418.09 387.11 417.27 387.74   Q 401.61 399.75 391.35 405.74   Q 381.96 411.22 371.73 416.03   C 370.29 416.71 368.84 416.96 367.41 417.68   Q 363.87 419.48 359.85 420.89   Q 355.73 422.33 352.08 423.69   Q 346.14 425.90 339.78 427.69   C 338.12 428.16 336.66 428.93 334.99 429.20   C 331.26 429.80 328.25 431.45 324.43 432.17   Q 318.10 433.38 310.99 435.05   Q 303.71 436.76 297.30 437.47   Q 291.37 438.13 285.53 439.05   Q 280.09 439.91 273.79 440.31   C 261.54 441.09 249.65 442.22 237.49 442.20   Q 217.86 442.18 192.98 439.80   C 188.89 439.41 185.01 438.43 180.98 437.96   C 176.69 437.47 172.45 437.13 168.38 435.99   C 165.25 435.11 162.06 434.91 158.85 434.11   Q 153.82 432.85 149.11 431.74   C 146.75 431.18 144.49 430.09 142.05 429.64   Q 138.46 428.98 134.92 427.59   C 133.73 427.12 132.54 427.01 131.29 426.55   Q 120.79 422.71 113.24 420.20   Q 111.62 419.66 110.36 420.29   Q 109.49 419.26 109.11 417.88   Q 108.97 417.42 108.62 417.08   Q 106.37 414.92 104.75 412.19   Q 103.07 409.37 101.33 407.18   Q 97.38 402.20 93.61 396.38   Q 90.18 391.10 86.11 385.71   Q 90.60 388.83 94.89 391.89   Q 100.00 395.53 103.86 397.79   Q 130.82 413.59 161.20 421.23   Q 164.29 422.01 167.36 422.54   C 172.00 423.34 176.18 424.87 180.69 425.30   Q 184.61 425.67 189.00 427.23   Q 190.67 427.82 192.26 427.28   Q 192.81 427.10 192.70 426.53   Q 192.51 425.57 191.40 424.60   Q 191.87 423.22 193.27 425.42   Q 193.86 426.35 194.55 426.77   Q 198.60 429.21 203.90 427.86   Q 211.84 429.91 219.49 430.31   Q 225.75 430.64 231.57 429.76   Q 248.92 430.37 266.05 429.64   C 267.12 429.59 267.64 428.99 268.76 429.08   C 270.24 429.20 271.61 428.97 273.06 429.02   Q 274.20 429.06 275.39 428.95   Q 282.95 428.22 289.51 427.48   Q 290.49 427.37 291.39 427.35   Q 295.12 427.25 298.41 426.77   Q 306.29 425.60 320.14 422.53   C 324.87 421.48 329.60 419.66 333.38 417.14   Q 337.72 414.25 341.07 413.23   Q 337.48 415.28 335.90 417.63   Q 335.47 418.27 336.23 418.15   C 341.61 417.31 347.27 415.01 352.12 413.02   Q 355.11 411.78 356.91 411.45   C 358.13 411.22 359.15 410.27 360.31 409.79   Q 402.56 392.36 427.91 355.01   Q 439.23 338.33 446.30 321.86   C 448.93 315.74 450.97 309.38 453.10 303.04   C 454.27 299.55 454.60 296.07 455.62 292.66   Q 456.82 288.63 457.22 284.80   C 457.64 280.80 458.81 276.85 459.17 272.91   Q 460.44 258.71 459.55 244.35   Q 459.14 237.72 456.89 226.04   Q 456.24 222.69 455.44 219.53   Q 454.62 216.32 453.93 213.16   Q 452.82 208.07 450.18 201.93   C 449.47 200.28 449.21 198.52 448.52 196.86   C 443.57 184.98 438.11 174.32 430.90 163.76   Q 425.27 155.49 420.23 149.11   C 407.86 133.46 392.12 117.67 375.26 104.93   Q 366.92 98.62 360.45 94.23   Q 340.37 80.61 312.95 70.07   Q 311.22 69.40 309.46 68.60   Q 307.68 67.78 305.93 67.27   Q 302.50 66.27 298.62 65.16   C 294.42 63.97 290.43 62.19 286.19 61.42   C 283.19 60.88 280.40 59.68 277.45 59.26   Q 274.20 58.79 271.05 57.99   Q 267.06 56.98 262.35 56.66   Q 258.06 56.37 253.18 55.70   Q 234.06 53.06 215.98 54.90   Q 208.83 55.63 200.83 56.54   Q 194.33 57.28 188.13 58.90   Q 181.88 60.52 175.65 62.61   Q 168.55 64.98 161.32 67.91   Q 122.10 83.81 93.74 115.25   Q 86.43 123.35 83.89 125.72   Q 95.27 107.69 102.03 99.52   Q 104.79 96.19 106.57 93.88   Q 109.52 90.02 111.13 88.25   Q 119.51 79.03 128.08 70.17   Q 130.18 70.55 131.82 69.83   Q 136.93 67.58 141.64 65.16   C 146.03 62.90 150.62 61.45 155.03 59.37   Q 157.77 58.08 160.61 57.05   Q 168.28 54.28 174.49 52.72   C 178.10 51.82 181.56 50.45 185.15 49.78   C 189.64 48.93 194.06 47.80 198.65 47.08   Q 208.19 45.59 217.44 43.37   L 218.13 44.09   Q 218.48 44.46 218.99 44.43   C 225.37 44.14 230.05 43.96 238.07 43.84   Q 244.08 43.75 250.76 42.64   Q 251.26 42.55 251.65 42.26   Q 252.04 41.95 252.54 41.93   L 261.33 41.49   Z"/>
<path fill="#193539" d="   M 458.80 166.66   L 463.95 178.16   Q 464.12 178.54 464.11 178.96   Q 464.10 179.58 464.46 180.11   Q 464.81 180.64 465.10 181.21   Q 466.65 184.23 467.59 187.49   Q 468.26 189.83 469.43 192.36   Q 470.53 194.72 471.47 197.09   Q 472.36 199.36 472.63 201.58   Q 472.89 203.79 473.83 205.68   Q 474.95 207.92 475.28 210.64   Q 475.63 213.53 476.68 215.90   C 477.65 218.09 477.03 220.04 477.72 222.15   Q 478.16 223.51 478.36 224.90   Q 478.59 226.54 479.08 228.04   Q 479.84 230.35 480.03 231.57   Q 481.03 238.02 481.35 245.39   Q 481.36 245.52 481.40 245.39   Q 481.61 244.66 481.24 244.00   Q 480.86 243.34 480.89 244.10   Q 481.04 247.80 481.43 251.00   Q 481.46 251.25 481.69 251.35   Q 481.73 251.37 481.78 251.37   Q 481.91 251.35 481.92 251.48   Q 483.14 270.26 481.45 288.99   Q 481.40 289.51 481.07 290.45   Q 480.83 291.15 480.81 291.91   Q 480.67 299.11 479.00 305.93   Q 478.18 309.28 477.69 312.69   Q 477.10 316.75 475.20 320.82   Q 474.34 322.66 473.92 324.70   Q 473.49 326.75 472.71 328.56   Q 470.73 333.18 469.02 338.18   Q 468.23 340.47 467.12 342.59   Q 466.28 344.18 465.90 345.87   Q 464.74 351.12 461.18 355.29   Q 460.84 355.69 460.88 356.22   Q 460.95 357.07 460.56 357.82   Q 455.51 367.52 449.15 379.41   Q 448.03 381.50 446.63 383.47   Q 445.43 385.16 444.64 387.15   Q 443.80 389.25 442.42 391.32   Q 440.82 393.73 439.55 396.20   Q 438.82 397.61 437.85 398.89   Q 436.77 400.32 436.09 401.85   Q 435.20 403.87 433.76 405.52   Q 432.38 407.09 431.30 408.81   Q 425.96 417.27 420.48 424.41   Q 419.45 425.75 418.05 426.85   Q 416.58 428.02 415.51 429.43   Q 414.70 430.51 413.74 431.23   C 412.70 432.01 411.92 433.06 411.38 434.26   Q 411.11 434.85 410.57 435.20   Q 408.50 436.52 406.92 438.62   Q 406.71 438.90 406.37 438.89   Q 406.17 438.88 406.01 439.01   Q 402.42 441.89 399.06 445.18   Q 398.74 445.50 398.32 445.67   Q 398.11 445.75 397.90 445.83   Q 397.47 446.00 397.19 446.37   C 396.03 447.86 394.49 448.15 393.11 449.34   Q 389.85 452.16 386.48 454.46   C 385.74 454.97 385.53 455.81 384.67 456.15   Q 380.99 457.58 377.45 460.26   Q 377.03 460.58 376.50 460.67   Q 374.78 460.99 373.40 462.21   Q 373.02 462.55 372.54 462.69   Q 369.62 463.54 367.05 464.99   Q 366.78 465.15 366.46 465.15   Q 366.29 465.15 366.13 465.12   Q 365.99 465.10 365.86 465.15   Q 360.82 466.97 355.56 468.67   Q 355.18 468.79 354.89 469.09   A 1.39 1.39 0.0 0 1 354.14 469.49   Q 351.45 470.03 348.64 470.97   Q 346.24 471.77 343.79 472.11   Q 341.25 472.46 338.81 472.89   Q 337.48 473.12 336.21 473.61   C 334.99 474.09 333.83 473.79 332.55 474.03   Q 325.90 475.27 318.81 474.87   Q 318.22 474.83 317.74 475.03   Q 317.03 475.32 316.76 475.56   Q 308.98 473.62 301.00 473.90   Q 298.71 473.98 294.48 472.93   Q 291.36 472.16 287.95 471.88   Q 281.90 471.37 274.12 469.24   C 269.81 468.06 265.70 465.08 262.44 462.21   Q 260.25 460.29 263.16 460.38   C 265.21 460.44 266.83 461.85 268.88 462.01   Q 273.25 462.36 277.89 463.40   Q 282.37 464.40 287.13 464.67   Q 301.53 465.50 314.78 464.56   C 319.12 464.25 323.23 463.05 327.45 462.26   C 330.45 461.69 333.15 460.27 336.21 459.71   Q 337.97 459.39 339.74 458.69   Q 345.24 456.50 350.31 454.38   Q 358.88 450.78 369.81 443.46   Q 382.72 434.80 394.55 422.28   Q 408.75 407.25 421.05 387.33   Q 421.26 386.99 420.94 386.75   Q 420.75 386.61 420.51 386.62   L 421.40 386.33   Q 421.88 386.16 422.10 385.70   L 424.30 380.99   Q 431.62 371.95 436.06 361.54   C 436.42 360.68 437.33 359.81 437.63 359.13   Q 441.93 349.43 446.81 339.34   Q 448.20 336.48 449.10 333.78   Q 450.06 330.95 451.28 328.16   Q 453.32 323.49 454.44 319.76   Q 455.43 316.46 456.68 313.24   Q 457.87 310.19 458.80 306.78   Q 460.37 301.06 461.83 295.27   Q 462.69 291.91 462.99 288.47   Q 463.08 287.48 463.42 286.51   Q 463.74 285.56 464.02 284.59   Q 464.39 283.27 464.52 281.78   Q 465.04 275.64 465.43 269.53   Q 465.46 269.03 465.59 268.56   Q 465.84 267.67 465.86 266.77   Q 465.97 260.94 466.21 254.98   Q 466.22 254.90 466.31 254.91   Q 466.47 254.95 466.55 254.85   Q 466.65 254.73 466.65 254.59   Q 466.45 248.30 465.54 242.08   C 465.27 240.25 465.54 238.48 465.26 236.70   Q 464.97 234.78 464.91 232.74   Q 464.80 228.66 463.29 224.72   C 462.37 222.32 462.14 220.13 461.82 217.64   Q 461.51 215.24 460.60 212.09   Q 459.78 209.27 459.19 206.23   Q 458.68 203.63 457.57 201.24   Q 457.00 200.02 456.70 198.70   C 456.36 197.21 455.36 195.95 455.35 194.43   Q 455.35 193.21 454.99 192.06   Q 453.08 185.97 451.19 179.43   Q 450.62 177.48 449.77 175.67   Q 448.91 173.82 448.67 171.86   C 448.49 170.41 447.26 169.46 447.01 168.03   Q 446.56 165.49 445.18 163.31   C 444.38 162.06 444.11 160.81 443.64 159.41   Q 443.13 157.87 442.38 156.45   Q 440.20 152.31 438.25 147.93   C 437.40 146.00 436.20 144.37 435.40 142.41   C 433.44 137.60 429.92 132.37 428.12 129.00   Q 425.58 124.27 421.84 120.95   Q 422.09 120.83 422.34 120.71   Q 414.37 107.82 402.52 94.48   Q 389.35 79.66 379.11 70.22   Q 377.35 68.60 373.56 65.56   Q 370.66 63.23 368.16 60.81   Q 367.06 59.74 366.16 58.49   Q 365.46 57.51 366.45 58.20   Q 368.78 59.80 371.13 61.34   Q 373.29 62.74 375.71 64.78   C 380.97 69.22 386.22 73.41 391.18 78.06   Q 403.82 89.89 413.04 100.06   Q 423.19 111.26 431.41 123.38   C 439.75 135.68 447.57 147.89 454.48 161.30   Q 456.27 164.77 458.80 166.66   Z"/>
<path fill="#4093bf" d="   M 341.07 413.23   Q 337.72 414.25 333.38 417.14   C 329.60 419.66 324.87 421.48 320.14 422.53   Q 306.29 425.60 298.41 426.77   Q 295.12 427.25 291.39 427.35   Q 290.49 427.37 289.51 427.48   Q 282.95 428.22 275.39 428.95   Q 274.20 429.06 273.06 429.02   C 271.61 428.97 270.24 429.20 268.76 429.08   C 267.64 428.99 267.12 429.59 266.05 429.64   Q 248.92 430.37 231.57 429.76   Q 232.43 428.33 232.10 427.63   Q 231.03 425.35 228.75 425.28   Q 223.11 425.10 217.52 424.46   Q 212.09 423.84 206.76 423.76   Q 196.48 421.90 186.68 418.57   Q 186.28 418.43 185.98 418.73   L 185.45 419.25   C 183.96 418.16 182.52 417.06 180.72 416.41   Q 165.23 410.90 149.86 402.72   Q 130.06 392.18 112.76 379.62   Q 104.16 373.38 96.85 366.78   Q 86.27 357.24 76.65 346.16   Q 64.64 332.34 55.59 315.90   Q 52.73 310.44 52.18 306.24   Q 51.82 303.53 51.41 301.71   Q 50.42 297.25 50.41 297.22   Q 48.89 287.65 47.90 278.04   Q 47.85 277.48 47.92 276.93   Q 47.99 276.45 47.71 276.08   Q 47.41 275.70 47.42 275.21   Q 47.48 272.50 46.93 269.72   Q 46.41 267.10 46.27 264.25   Q 46.05 259.97 45.91 255.86   Q 45.76 251.58 46.31 245.77   Q 47.02 238.18 46.62 235.75   Q 45.31 227.77 46.95 220.14   Q 47.03 223.04 47.15 225.74   Q 47.81 240.77 51.24 253.91   Q 53.88 264.01 58.86 278.91   Q 62.71 290.40 69.28 302.41   Q 70.88 305.33 72.29 308.43   Q 74.13 312.47 75.30 314.46   Q 76.24 316.07 78.60 318.07   Q 79.03 318.43 79.38 317.99   Q 79.93 317.28 79.62 316.43   C 79.13 315.10 78.19 314.06 77.88 312.68   Q 77.11 309.21 75.81 306.15   Q 75.75 306.00 75.87 305.88   Q 75.91 305.85 75.97 305.86   Q 76.04 305.87 76.07 305.94   C 76.90 307.76 78.51 308.39 79.58 310.16   Q 87.84 323.85 100.88 334.86   C 104.67 338.06 107.77 340.55 112.69 341.70   Q 114.37 342.09 115.23 343.51   Q 115.52 343.98 115.37 344.51   C 114.95 345.97 114.23 347.23 114.01 348.77   Q 113.51 352.29 112.55 355.29   Q 111.51 358.53 113.98 360.99   Q 118.82 365.81 125.30 370.87   Q 133.53 377.30 142.82 384.18   Q 145.29 386.01 152.32 388.37   Q 156.93 392.28 165.01 396.22   Q 186.79 406.84 208.00 410.88   Q 211.17 411.49 214.32 411.63   Q 217.32 411.77 220.58 412.11   Q 224.68 412.52 228.09 411.46   Q 230.27 412.57 232.87 412.27   Q 236.78 411.80 236.91 411.80   Q 241.71 411.71 246.50 411.62   C 249.31 411.57 251.29 408.76 252.68 406.51   C 256.58 400.19 261.33 391.48 260.02 384.80   C 258.46 376.85 253.35 373.07 245.66 371.55   Q 236.58 369.75 225.07 364.55   Q 217.24 361.02 207.53 354.40   Q 196.95 347.19 185.60 339.14   Q 175.23 331.78 162.11 325.85   C 158.05 324.01 153.45 322.65 149.17 321.19   Q 144.79 319.71 131.96 318.18   Q 129.55 317.89 128.83 315.04   C 126.09 304.21 120.99 293.79 112.68 287.16   Q 112.17 286.76 111.98 286.15   A 0.83 0.83 0.0 0 1 112.75 285.08   C 115.50 284.98 118.09 285.01 120.73 284.07   Q 130.54 280.58 136.70 275.18   C 144.06 268.73 151.49 261.99 159.18 255.70   C 161.20 254.05 163.56 252.71 165.90 251.68   C 169.00 250.31 172.78 251.31 176.12 250.75   Q 180.98 249.94 184.76 245.73   C 186.76 243.50 187.57 239.49 188.51 236.47   A 2.24 2.23 88.6 0 1 189.85 235.06   C 193.69 233.61 197.94 232.37 201.25 229.85   C 206.58 225.80 210.88 219.79 210.71 212.90   Q 210.51 204.96 203.81 200.15   Q 199.30 196.92 197.09 192.52   Q 195.63 189.59 193.66 186.15   C 192.94 184.89 192.44 183.04 193.75 181.95   Q 195.89 180.15 198.48 180.44   A 1.18 1.16 -14.5 0 1 199.29 180.91   Q 200.09 182.00 200.27 183.38   C 202.08 197.64 213.73 206.98 228.00 205.53   Q 231.63 205.17 235.20 202.56   Q 237.26 201.05 238.87 198.30   C 242.22 192.59 246.63 186.79 251.73 183.20   Q 256.58 179.77 263.78 179.14   Q 274.29 178.21 278.31 168.51   C 279.14 166.51 278.79 162.22 278.51 159.99   Q 277.76 154.02 279.18 149.25   C 280.65 144.34 282.61 139.19 283.09 134.10   Q 283.92 125.37 283.00 120.75   Q 281.14 111.39 273.86 106.57   Q 270.65 104.45 268.54 101.54   C 263.07 93.99 254.32 94.29 245.60 96.05   C 241.69 96.84 238.85 99.21 235.47 101.04   Q 235.01 101.29 234.49 101.24   Q 226.57 100.52 220.82 102.15   Q 212.96 104.38 204.62 107.70   Q 199.85 109.60 196.98 114.11   C 195.51 116.43 195.70 118.56 195.38 121.09   A 0.76 0.75 -77.2 0 1 194.40 121.71   C 191.72 120.83 189.89 118.56 187.15 118.02   Q 177.43 116.12 170.48 120.97   Q 168.08 122.64 165.59 123.77   Q 162.86 125.01 160.30 126.53   Q 159.81 126.82 159.57 127.33   Q 159.12 128.30 158.04 128.76   C 155.85 129.70 154.67 127.01 155.09 125.24   Q 157.13 116.43 156.80 108.20   C 156.64 104.35 155.06 100.70 153.75 97.10   Q 153.29 95.86 154.41 95.15   Q 166.96 87.14 180.65 81.13   Q 185.93 78.81 190.98 77.17   Q 196.46 75.39 201.92 73.78   Q 208.91 71.74 216.78 70.12   Q 225.10 68.41 232.11 67.98   Q 251.28 66.81 270.27 68.14   C 280.62 68.87 291.24 71.12 301.36 73.90   C 302.79 74.29 304.05 74.99 305.47 75.42   Q 324.86 81.26 343.09 91.77   Q 350.56 96.09 350.91 96.30   Q 354.78 98.67 358.49 101.33   Q 361.08 103.19 358.85 105.35   Q 353.61 110.45 352.43 118.00   C 352.10 120.09 350.48 121.53 348.31 121.34   C 338.85 120.52 328.68 120.19 324.82 130.83   Q 322.36 137.64 322.49 145.21   Q 322.67 155.58 321.89 165.68   C 321.59 169.56 319.72 172.34 317.54 175.42   C 315.70 178.02 315.90 183.04 316.40 185.93   C 317.27 190.96 322.23 195.21 326.44 197.62   Q 328.81 198.97 330.94 200.87   A 1.56 1.56 0.0 0 1 331.30 202.72   Q 330.11 205.15 328.21 207.08   Q 321.55 213.81 313.93 219.50   C 310.19 222.29 308.33 226.90 308.39 231.63   C 308.40 232.61 307.58 233.78 306.88 234.45   C 303.56 237.64 300.61 241.26 300.54 246.00   Q 300.43 253.22 300.53 260.75   Q 300.56 263.27 300.92 265.33   C 301.44 268.24 303.78 270.64 305.46 273.03   A 2.78 2.77 -41.6 0 1 305.25 276.47   C 303.48 278.46 301.66 280.27 300.17 282.53   Q 294.06 291.80 290.59 300.78   Q 288.52 306.14 286.68 313.42   C 284.25 323.06 283.88 333.73 286.10 342.97   C 288.41 352.54 294.24 370.95 305.92 372.58   Q 317.21 374.15 327.85 372.55   Q 331.84 371.94 335.82 370.29   Q 340.24 368.45 344.54 366.65   Q 346.10 365.99 347.82 364.91   Q 349.47 363.87 351.22 363.84   A 1.59 1.59 0.0 0 1 352.78 365.86   Q 350.64 373.53 347.38 380.93   C 344.84 386.72 342.33 393.62 342.18 399.96   Q 342.15 401.05 342.71 406.01   Q 343.31 411.35 341.07 413.23   Z"/>
<path fill="#607523" d="   M 129.07 67.99   Q 129.02 68.92 128.08 70.17   Q 119.51 79.03 111.13 88.25   Q 109.52 90.02 106.57 93.88   Q 104.79 96.19 102.03 99.52   Q 95.27 107.69 83.89 125.72   L 75.36 137.48   Q 76.47 134.63 78.25 132.04   Q 80.70 128.49 81.58 126.92   Q 83.32 123.85 85.32 120.84   Q 86.50 119.06 87.38 117.19   Q 88.15 115.56 89.61 113.61   Q 106.13 91.48 110.47 87.00   Q 119.73 77.44 129.07 67.99   Z"/>
<path fill="#cf174d" d="   M 164.14 220.79   C 162.58 222.96 165.45 224.43 166.34 226.10   Q 168.10 229.45 169.86 232.69   A 1.87 1.87 0.0 0 1 168.20 235.45   Q 163.31 235.40 159.25 236.68   C 154.33 238.24 149.11 242.02 145.12 245.65   Q 136.18 253.78 126.53 262.11   C 123.50 264.74 119.84 267.65 116.00 268.62   C 107.46 270.75 102.58 265.66 98.38 259.24   C 97.14 257.35 94.62 257.17 93.06 258.81   Q 89.70 262.33 89.22 267.24   Q 88.78 271.75 89.22 276.16   Q 89.81 281.93 90.10 288.18   A 1.82 1.82 0.0 0 0 90.93 289.63   C 97.08 293.62 102.46 298.12 106.51 304.42   Q 110.81 311.10 113.81 318.70   Q 114.66 320.87 114.89 323.08   Q 114.94 323.63 114.66 324.09   A 1.11 1.11 0.0 0 1 113.03 324.39   Q 111.15 322.94 109.56 321.32   C 104.94 316.62 100.14 312.15 96.13 306.75   Q 90.90 299.70 86.34 290.06   Q 81.88 280.64 80.25 270.61   Q 79.89 268.37 79.17 266.32   C 77.81 262.41 78.00 258.14 77.49 254.14   Q 76.94 249.87 76.93 246.29   Q 76.89 228.97 78.54 217.94   Q 80.90 202.10 83.95 191.10   Q 86.00 183.72 88.77 175.88   Q 90.59 170.73 92.81 165.71   Q 94.87 161.08 97.27 156.01   Q 111.55 125.87 136.13 104.11   Q 137.86 102.58 139.81 103.74   Q 140.27 104.01 140.42 104.54   C 142.19 110.56 140.79 117.26 139.96 123.54   C 139.58 126.41 138.52 129.13 138.48 132.03   Q 138.47 132.49 138.72 132.88   Q 140.46 135.68 143.24 137.97   Q 146.08 140.31 148.77 142.80   Q 152.69 146.43 158.15 149.10   C 161.06 150.52 163.05 148.66 165.76 149.68   A 0.68 0.68 0.0 0 1 166.12 150.62   C 164.39 154.14 161.34 154.58 158.10 155.83   Q 155.83 156.71 153.26 157.09   C 149.83 157.60 146.74 159.12 143.20 159.54   Q 137.56 160.20 132.65 162.58   Q 130.75 163.50 130.53 165.49   Q 129.86 171.53 132.17 178.63   Q 132.19 178.68 134.87 185.01   Q 138.58 193.78 138.05 203.40   A 2.02 2.01 6.6 0 0 139.72 205.49   Q 141.16 205.74 142.43 205.42   Q 149.90 203.52 153.33 197.24   Q 156.16 192.08 158.98 184.51   Q 159.76 182.43 160.82 180.62   C 162.25 178.18 164.22 173.82 167.74 176.57   Q 169.77 178.15 171.84 180.26   Q 173.87 182.33 175.38 184.90   C 176.93 187.53 178.41 190.06 179.70 192.80   Q 183.24 200.26 188.16 206.71   Q 190.31 209.54 193.03 211.46   A 2.46 2.46 0.0 0 1 193.37 215.19   C 192.38 216.21 191.36 217.20 190.02 217.78   Q 185.70 219.66 183.51 219.93   Q 175.72 220.90 166.03 219.94   A 2.07 2.07 0.0 0 0 164.14 220.79   Z"/>
<path fill="#cf174d" d="   M 239.28 120.59   C 242.06 120.99 242.88 118.13 243.58 116.08   Q 244.36 113.78 247.56 111.52   Q 250.84 109.21 254.92 110.84   Q 255.47 111.06 255.11 111.52   Q 254.01 112.93 252.15 113.11   A 3.05 3.04 6.8 0 0 249.57 115.14   Q 248.80 117.41 251.24 117.92   Q 255.06 118.73 259.74 118.40   C 264.12 118.09 267.12 120.19 267.11 124.70   C 267.10 130.66 267.28 136.20 265.14 141.78   C 264.20 144.26 263.72 146.78 262.75 149.27   C 261.52 152.41 261.76 156.95 262.03 160.23   Q 262.23 162.65 259.93 163.44   Q 256.95 164.46 253.98 164.78   C 248.13 165.40 240.67 170.60 237.06 174.24   Q 231.55 179.78 226.90 187.20   Q 225.35 189.68 222.76 189.47   C 218.07 189.08 214.79 183.39 214.59 179.16   Q 214.26 172.09 214.43 165.12   A 2.30 2.30 0.0 0 1 215.63 163.17   C 220.79 160.37 223.71 155.94 221.74 149.90   C 220.78 146.97 220.12 144.03 218.85 141.29   Q 216.08 135.30 213.16 129.02   Q 211.90 126.31 211.80 123.54   A 2.03 2.03 0.0 0 1 212.99 121.63   Q 219.16 118.83 225.57 116.70   Q 233.46 114.07 238.56 120.19   Q 238.84 120.53 239.28 120.59   Z"/>
<path fill="#bbc129" d="   M 418.81 259.84   Q 418.25 259.45 417.58 259.31   Q 415.03 258.79 415.64 261.33   C 417.38 268.53 420.03 275.32 422.05 282.33   C 422.80 284.94 424.14 287.03 424.92 289.58   C 425.95 292.96 427.63 296.38 428.94 299.56   Q 429.30 300.45 428.99 301.43   Q 420.56 327.34 408.08 348.36   Q 399.16 363.38 385.71 378.34   C 378.31 386.58 369.64 393.65 361.02 400.39   Q 360.07 401.13 358.93 401.39   A 1.29 1.29 0.0 0 1 357.43 399.69   Q 360.91 390.09 364.42 381.27   Q 368.80 370.28 367.44 358.98   C 366.28 349.27 357.99 345.42 349.19 348.03   Q 343.03 349.85 337.74 352.52   Q 332.10 355.35 326.82 356.72   C 321.85 358.01 310.46 359.94 307.35 354.39   Q 305.59 351.26 303.84 347.08   Q 302.25 343.27 301.71 339.67   Q 299.59 325.49 302.79 314.41   C 308.08 296.04 320.26 280.61 335.79 269.61   Q 341.01 265.91 346.09 263.62   Q 350.98 261.42 357.03 259.27   Q 361.22 257.78 365.23 258.05   C 367.54 258.20 368.80 260.10 369.39 262.13   Q 370.54 266.09 372.63 268.69   C 374.26 270.71 379.80 268.67 381.39 267.82   Q 383.31 266.79 385.37 266.11   C 387.37 265.46 389.19 264.60 391.19 263.95   Q 397.49 261.93 403.73 258.14   Q 412.15 253.03 414.53 243.22   C 415.45 239.44 412.54 237.96 409.57 237.20   Q 399.46 234.64 389.45 237.87   C 385.29 239.22 379.64 235.90 376.39 233.14   C 374.68 231.69 372.88 230.55 371.04 229.18   Q 369.57 228.09 367.27 228.70   Q 366.40 228.94 366.28 230.24   A 1.49 1.49 0.0 0 0 366.76 231.48   Q 368.80 233.32 371.58 234.42   C 373.39 235.13 374.86 236.32 376.30 237.59   Q 377.62 238.75 377.35 240.75   Q 377.26 241.50 376.31 241.79   A 1.15 1.14 -36.6 0 1 375.34 241.65   C 372.80 239.98 371.15 237.75 368.15 236.63   C 365.11 235.50 364.04 234.07 360.50 234.92   Q 354.84 236.27 351.53 240.55   Q 347.44 245.81 342.80 252.63   Q 340.33 256.25 337.78 259.15   C 332.47 265.18 325.79 267.34 318.20 263.06   Q 316.78 262.26 316.77 260.70   Q 316.72 255.24 316.75 249.67   A 2.40 2.39 -89.2 0 1 319.19 247.29   Q 326.35 247.42 333.11 247.36   C 337.41 247.33 335.39 239.36 334.56 237.24   Q 332.62 232.25 328.00 231.37   A 1.30 1.30 0.0 0 1 327.46 229.05   Q 337.21 221.68 343.72 212.93   Q 346.59 209.07 347.25 204.66   A 2.56 2.56 0.0 0 1 349.98 202.48   C 351.98 202.63 353.89 202.60 355.75 201.73   Q 362.47 198.59 366.74 191.40   Q 370.46 185.15 372.15 178.48   Q 372.79 175.95 372.79 173.32   C 372.79 171.43 371.18 170.61 369.52 170.51   Q 364.85 170.25 362.15 166.88   Q 358.44 162.26 355.20 156.56   Q 353.70 153.91 350.49 152.92   Q 349.91 152.74 349.50 153.19   C 346.34 156.58 349.37 166.99 351.19 171.06   Q 353.96 177.22 356.27 183.32   C 356.92 185.06 356.05 186.47 354.49 187.25   C 347.70 190.66 340.53 188.12 334.43 184.40   C 332.65 183.32 332.53 181.24 333.42 179.57   Q 338.98 169.17 338.65 156.58   Q 338.42 147.93 338.83 140.32   Q 339.00 137.10 342.26 137.00   Q 351.13 136.75 359.39 137.19   Q 361.00 137.28 361.04 138.89   Q 361.07 140.30 360.54 141.57   Q 358.34 146.84 363.53 150.08   Q 365.01 151.01 366.49 150.64   Q 366.97 150.52 367.23 150.11   Q 370.87 144.45 369.33 137.83   C 367.99 132.07 366.44 125.63 367.91 120.01   C 368.77 116.70 372.20 113.61 375.74 116.24   Q 378.68 118.43 379.89 119.62   Q 409.00 148.37 423.96 186.52   Q 426.20 192.23 431.04 209.48   Q 432.38 214.28 432.77 217.95   C 433.18 221.85 434.28 225.57 434.51 229.49   Q 435.24 242.26 434.63 254.82   Q 434.52 257.03 433.97 259.20   C 432.59 264.64 432.59 270.26 432.20 275.80   C 432.03 278.27 431.32 280.90 430.18 283.09   A 1.00 1.00 0.0 0 1 428.45 283.18   Q 426.67 280.44 426.13 277.80   Q 424.51 270.07 422.14 263.98   Q 421.17 261.50 418.81 259.84   Z"/>
<path fill="#607523" d="   M 421.84 120.95   Q 425.58 124.27 428.12 129.00   C 429.92 132.37 433.44 137.60 435.40 142.41   C 436.20 144.37 437.40 146.00 438.25 147.93   Q 440.20 152.31 442.38 156.45   Q 443.13 157.87 443.64 159.41   C 444.11 160.81 444.38 162.06 445.18 163.31   Q 446.56 165.49 447.01 168.03   C 447.26 169.46 448.49 170.41 448.67 171.86   Q 448.91 173.82 449.77 175.67   Q 450.62 177.48 451.19 179.43   Q 453.08 185.97 454.99 192.06   Q 455.35 193.21 455.35 194.43   C 455.36 195.95 456.36 197.21 456.70 198.70   Q 457.00 200.02 457.57 201.24   Q 458.68 203.63 459.19 206.23   Q 459.78 209.27 460.60 212.09   Q 461.51 215.24 461.82 217.64   C 462.14 220.13 462.37 222.32 463.29 224.72   Q 464.80 228.66 464.91 232.74   Q 464.97 234.78 465.26 236.70   C 465.54 238.48 465.27 240.25 465.54 242.08   Q 466.45 248.30 466.65 254.59   Q 466.65 254.73 466.55 254.85   Q 466.47 254.95 466.31 254.91   Q 466.22 254.90 466.21 254.98   Q 465.97 260.94 465.86 266.77   Q 465.84 267.67 465.59 268.56   Q 465.46 269.03 465.43 269.53   Q 465.04 275.64 464.52 281.78   Q 464.39 283.27 464.02 284.59   Q 463.74 285.56 463.42 286.51   Q 463.08 287.48 462.99 288.47   Q 462.69 291.91 461.83 295.27   Q 460.37 301.06 458.80 306.78   Q 457.87 310.19 456.68 313.24   Q 455.43 316.46 454.44 319.76   Q 453.32 323.49 451.28 328.16   Q 450.06 330.95 449.10 333.78   Q 448.20 336.48 446.81 339.34   Q 441.93 349.43 437.63 359.13   C 437.33 359.81 436.42 360.68 436.06 361.54   Q 431.62 371.95 424.30 380.99   Q 430.47 370.11 441.67 347.52   Q 442.62 345.60 443.12 344.31   Q 443.82 342.54 444.51 341.06   Q 446.45 336.96 448.05 332.70   Q 449.25 329.51 450.41 326.62   Q 452.12 322.37 452.57 320.45   Q 453.24 317.65 454.27 315.33   Q 455.66 312.22 456.08 309.16   Q 456.35 307.13 457.16 305.42   Q 458.16 303.30 458.14 301.41   Q 458.14 301.12 458.40 301.02   Q 458.56 300.96 458.58 300.79   Q 458.84 297.99 459.04 295.27   C 459.13 294.04 459.98 293.14 459.85 291.92   Q 459.83 291.67 460.06 291.58   Q 460.29 291.49 460.35 291.25   Q 461.51 286.19 461.94 281.45   Q 462.16 279.05 463.30 271.05   Q 464.01 266.12 464.14 260.57   Q 464.43 247.47 462.97 238.86   Q 462.31 234.99 461.93 230.70   Q 461.53 226.08 460.25 221.67   Q 459.57 219.30 459.33 216.76   C 459.10 214.48 459.04 212.35 458.39 210.14   Q 457.19 206.06 456.22 201.75   Q 455.82 199.98 455.16 198.37   Q 454.72 197.31 454.56 196.02   Q 454.41 194.78 453.95 193.57   Q 453.09 191.28 452.56 188.99   Q 452.05 186.77 451.26 184.54   Q 450.02 181.06 448.79 177.37   Q 447.74 174.21 446.04 170.31   Q 444.69 167.20 443.51 163.90   Q 442.19 160.23 440.88 157.48   Q 438.31 152.10 435.97 146.81   Q 434.84 144.25 433.49 141.57   Q 430.65 135.90 427.70 130.74   Q 426.55 128.74 425.58 126.60   Q 424.89 125.07 423.84 123.69   Q 422.84 122.38 421.84 120.95   Z"/>
<path fill="#cf174d" d="   M 180.16 144.01   Q 177.46 143.56 175.10 143.77   C 173.12 143.94 171.20 143.31 169.87 141.77   A 1.70 1.70 0.0 0 1 171.11 138.96   Q 172.01 138.93 172.93 139.13   A 2.13 2.11 -67.9 0 0 175.17 138.17   C 176.75 135.59 180.75 131.16 184.08 133.11   C 185.52 133.95 186.04 136.60 186.72 138.17   C 189.33 144.24 186.90 151.22 189.75 157.13   Q 191.19 160.12 194.79 162.79   A 1.35 1.35 0.0 0 1 194.43 165.15   Q 191.84 166.03 190.56 163.85   A 1.32 1.32 0.0 0 0 189.81 163.26   C 186.59 162.30 185.95 163.99 184.23 166.01   C 182.35 168.19 183.26 171.42 181.11 173.29   Q 179.04 175.09 176.84 173.12   C 174.01 170.57 174.82 166.68 176.94 163.99   Q 180.21 159.84 183.12 155.32   Q 185.99 150.88 183.20 146.21   Q 182.07 144.32 180.16 144.01   Z"/>
<path fill="#bbc129" d="   M 31.38 275.26   Q 32.93 282.56 32.98 290.51   Q 32.05 302.61 35.96 314.01   Q 38.34 320.96 38.38 321.08   Q 39.96 325.99 42.01 331.22   Q 43.01 333.76 45.72 338.05   Q 47.50 340.86 49.40 345.04   Q 50.95 348.43 52.89 347.88   Q 57.24 355.98 61.51 364.73   C 62.28 366.28 63.45 367.55 64.19 369.20   Q 64.95 370.93 66.06 372.65   Q 69.79 378.49 73.53 384.48   Q 77.19 390.36 80.12 393.96   Q 83.07 397.59 85.43 401.46   Q 86.83 403.75 88.80 405.73   Q 90.72 407.67 92.67 409.73   C 76.76 401.64 63.85 391.52 51.66 378.79   Q 44.84 371.66 39.40 363.70   C 31.67 352.41 25.09 341.38 20.71 328.84   Q 19.85 326.38 18.92 323.65   Q 18.02 321.00 17.38 318.52   Q 13.52 303.44 12.82 296.95   Q 10.37 273.95 12.93 251.34   Q 13.94 242.36 17.48 225.00   Q 18.12 221.84 18.89 219.44   C 19.72 216.88 20.10 214.21 20.91 211.58   Q 25.16 197.79 29.37 184.13   Q 29.73 184.03 30.22 183.92   Q 30.80 183.80 30.66 184.28   Q 30.65 184.34 30.65 184.39   Q 30.68 184.91 30.94 184.46   Q 31.13 184.11 31.46 183.86   Q 31.84 183.56 32.03 183.11   L 39.05 165.97   Q 39.24 165.50 39.80 165.38   Q 40.92 165.15 41.60 164.23   Q 41.72 164.06 41.92 164.06   Q 42.00 164.06 42.03 164.12   Q 42.13 164.28 42.06 164.44   Q 41.36 166.00 40.73 167.74   Q 40.10 169.47 39.71 171.34   Q 38.72 176.09 37.12 180.40   Q 36.74 181.43 36.54 182.57   Q 36.36 183.57 36.03 184.55   Q 35.02 187.55 34.62 190.79   Q 34.56 191.25 34.30 191.65   Q 33.51 192.90 33.15 195.26   Q 31.98 202.84 30.69 210.50   Q 29.62 216.84 29.93 225.49   Q 30.07 229.59 29.58 233.02   Q 28.95 237.41 28.94 240.50   Q 28.91 258.04 31.38 275.26   Z"/>
<path fill="#cf174d" d="   M 228.09 411.46   Q 224.68 412.52 220.58 412.11   Q 217.32 411.77 214.32 411.63   Q 211.17 411.49 208.00 410.88   Q 186.79 406.84 165.01 396.22   Q 156.93 392.28 152.32 388.37   Q 144.00 378.48 135.85 369.39   Q 133.19 366.42 130.29 363.67   C 127.17 360.71 127.63 357.25 129.11 353.86   Q 132.37 346.40 131.81 337.24   A 2.02 2.02 0.0 0 1 133.71 335.10   Q 138.55 334.79 143.67 336.24   Q 150.21 338.09 155.95 340.65   Q 161.93 343.31 169.05 347.65   Q 174.94 351.24 182.49 356.64   Q 193.19 364.27 204.46 371.53   Q 214.14 377.77 224.09 381.92   Q 230.39 384.55 237.13 385.99   C 238.75 386.34 240.29 387.05 241.85 387.59   Q 242.39 387.77 242.66 388.26   Q 243.41 389.63 242.62 391.29   Q 238.55 399.87 234.83 403.58   Q 230.03 408.37 228.09 411.46   Z"/>
<path fill="#607523" d="   M 96.89 413.17   L 92.67 409.73   Q 90.72 407.67 88.80 405.73   Q 86.83 403.75 85.43 401.46   Q 83.07 397.59 80.12 393.96   Q 77.19 390.36 73.53 384.48   Q 69.79 378.49 66.06 372.65   Q 64.95 370.93 64.19 369.20   C 63.45 367.55 62.28 366.28 61.51 364.73   Q 57.24 355.98 52.89 347.88   L 52.57 344.62   Q 55.01 349.53 57.41 354.36   Q 60.01 359.60 62.59 363.92   Q 71.51 378.84 81.97 393.66   Q 83.08 395.23 84.32 396.64   C 85.46 397.95 86.12 399.42 87.24 400.80   Q 92.14 406.85 96.89 413.17   Z"/>
<path fill="#607523" d="   M 74.86 368.04   L 86.11 385.71   Q 90.18 391.10 93.61 396.38   Q 97.38 402.20 101.33 407.18   Q 103.07 409.37 104.75 412.19   Q 106.37 414.92 108.62 417.08   Q 108.97 417.42 109.11 417.88   Q 109.49 419.26 110.36 420.29   L 111.05 421.49   Q 111.18 421.99 110.71 422.15   A 0.50 0.49 62.0 0 1 110.14 421.97   L 85.38 387.75   Q 85.12 387.40 85.12 386.96   L 85.12 386.29   Q 85.12 385.87 84.75 385.67   Q 84.44 385.49 84.07 384.91   Q 78.01 375.37 74.86 368.04   Z"/>
<path fill="#cf174d" d="   M 206.76 423.76   Q 204.95 424.44 204.83 425.50   Q 204.66 427.18 203.90 427.86   Q 198.60 429.21 194.55 426.77   Q 193.86 426.35 193.27 425.42   Q 191.87 423.22 191.40 424.60   L 185.45 419.25   L 185.98 418.73   Q 186.28 418.43 186.68 418.57   Q 196.48 421.90 206.76 423.76   Z"/>
</svg>